<?xml version="1.0" encoding="UTF-8"?>
<svg version="1.1" xmlns="http://www.w3.org/2000/svg" width="267" height="217">
<path d="M0 0 C4.21026453 3.94125932 8.27599982 8.0287992 12.33276367 12.12695312 C14.1893971 14.00191583 16.05398118 15.86867902 17.91992188 17.734375 C23.22726499 23.05765755 28.46497669 28.38269961 33.34643555 34.10400391 C36.84411934 38.11448853 40.58398887 41.89310353 44.3125 45.6875 C45.10333984 46.51572266 45.89417969 47.34394531 46.70898438 48.19726562 C54.38148587 55.98195642 62.4342321 61.0804066 73.5625 61.3125 C83.14598929 61.21380289 90.2114329 58.64563361 97.2421875 52.0703125 C102.70511132 45.63620222 105.37029803 38.0392069 105.28515625 29.6953125 C104.82067871 25.30504535 103.1157692 21.82607741 101 18 C100.443125 16.948125 99.88625 15.89625 99.3125 14.8125 C93.74350776 8.03940132 86.29249255 4.57916405 77.75 3.25 C68.78967851 2.43815879 61.38397309 5.03684847 54 10 C50.52973776 13.07162869 47.45456626 16.49385567 44.33203125 19.91210938 C43.71199219 20.56630859 43.09195313 21.22050781 42.453125 21.89453125 C41.90817383 22.49112549 41.36322266 23.08771973 40.80175781 23.70239258 C38.39614531 25.43488993 36.90001152 25.38410165 34 25 C31.57990293 22.57990293 31.44985709 21.5492787 31.125 18.1875 C31.21353565 11.45879059 34.66751385 8.05581931 39.15966797 3.50683594 C49.50768546 -6.51714354 59.35594564 -12.14160852 73.875 -13.3125 C85.71848421 -12.92968031 96.41394143 -8.07140753 105.078125 -0.15234375 C116.01964672 12.10127103 116.95483417 25.64820681 116.23828125 41.27929688 C115.31032103 51.87477708 109.68909305 61.10835247 101.71484375 67.96484375 C90.33547062 76.49486513 78.90402218 78.47501822 65 77 C52.26278004 74.52374825 43.32036674 65.66870251 34.90356445 56.41333008 C27.03139603 47.80408539 18.70442014 39.64503287 10.41830444 31.43743896 C9.10840432 30.13989012 7.79945504 28.84138059 6.49151611 27.54185486 C5.28683009 26.34500155 4.0800021 25.15029842 2.87054443 23.95826721 C-0.5017981 20.60594177 -3.65476384 17.14742888 -6.68795776 13.48434448 C-8.43451229 11.50842594 -10.34188572 10.0977291 -12.5625 8.6875 C-13.28566406 8.21699219 -14.00882813 7.74648437 -14.75390625 7.26171875 C-22.66052662 2.8202607 -30.43322867 2.30109846 -39.2265625 4.1484375 C-46.94187605 6.51736476 -53.67036253 11.14023063 -58 18 C-61.57781782 24.8313959 -63.49161484 30.95084388 -61.26953125 38.47265625 C-58.18195318 46.82802057 -54.03685161 53.73139982 -46 58 C-36.86904125 61.82762412 -27.82428263 62.26527544 -18.4296875 59.08984375 C-12.78138424 56.55628007 -8.42578948 52.51312097 -4.16796875 48.09765625 C-3.68320068 47.59685547 -3.19843262 47.09605469 -2.69897461 46.58007812 C-1.30795084 45.12319459 0.05759601 43.64211428 1.421875 42.16015625 C4 40 4 40 6.703125 39.55859375 C9 40 9 40 11 42 C11.85138368 45.80198055 11.83394709 49.19700031 11 53 C8.44316596 56.55236729 5.34537215 59.20462971 2 62 C1.154375 62.886875 0.30875 63.77375 -0.5625 64.6875 C-11.1819996 74.76240987 -21.23141149 77.53459127 -35.6953125 77.2734375 C-47.47213539 76.75379612 -56.03199202 70.47073474 -63.8125 62.0625 C-73.52198078 50.39763767 -74.1540825 36.56500456 -73 22 C-71.11661122 11.06919299 -65.02944345 1.64282771 -56.125 -4.9375 C-37.06378719 -17.14721696 -16.67839487 -14.64244306 0 0 Z " fill="#FDFDFD" transform="translate(115,92)"/>
<path d="M0 0 C0.33 0.99 0.66 1.98 1 3 C-0.13689309 5.24620656 -1.2997911 7.22765231 -2.6875 9.3125 C-3.09250732 9.92770508 -3.49751465 10.54291016 -3.91479492 11.17675781 C-22.23793832 38.33187031 -50.36320489 56.45546883 -82.36328125 63.16015625 C-112.06082919 68.77713099 -143.83632606 62.9915667 -170 48 C-171.47146484 47.16855469 -171.47146484 47.16855469 -172.97265625 46.3203125 C-190.91483973 35.52918632 -203.60837994 20.26068667 -215 3 C-214.67 2.34 -214.34 1.68 -214 1 C-213.5875 1.42410156 -213.175 1.84820312 -212.75 2.28515625 C-209.01883698 6.07461869 -205.18356273 9.66190402 -201.1484375 13.125 C-199.65097288 14.43187821 -198.17857101 15.76779617 -196.7265625 17.125 C-173.33150329 38.93010373 -139.75396065 55.56849736 -107.23242188 55.09814453 C-73.75994534 53.62658552 -42.70834937 40.32850836 -18 18 C-16.58454316 16.79024969 -15.16803858 15.58172303 -13.75 14.375 C-5.93489017 7.94216967 -5.93489017 7.94216967 0 0 Z " fill="#FEFEFE" transform="translate(242,144)"/>
<path d="M0 0 C5.31499818 4.66618993 10.28677263 9.67279214 15.26074219 14.69750977 C17.11737562 16.57247247 18.9819597 18.43923566 20.84790039 20.30493164 C26.15524351 25.62821419 31.39295521 30.95325625 36.27441406 36.67456055 C39.77209785 40.68504517 43.51196738 44.46366017 47.24047852 48.25805664 C48.03131836 49.0862793 48.8221582 49.91450195 49.63696289 50.76782227 C57.30946439 58.55251306 65.36221062 63.65096324 76.49047852 63.88305664 C86.06744104 63.78442675 93.16465 61.22401338 100.17407227 54.62524414 C104.83485134 49.16517778 107.27727868 42.47348324 108.92797852 35.57055664 C109.25797852 35.57055664 109.58797852 35.57055664 109.92797852 35.57055664 C110.59705421 44.60307851 107.59385261 52.48821402 101.92797852 59.57055664 C95.85105037 66.13825808 89.03419091 69.82938879 80.09594727 70.91430664 C68.47670587 71.30432313 59.64079814 66.75954163 51.15893555 59.05541992 C48.66560751 56.65580569 46.22829228 54.20269811 43.80688477 51.73071289 C42.30549329 50.19812367 40.79366377 48.67649698 39.27954102 47.15649414 C35.23597545 43.08027199 31.2260636 38.99399605 27.48657227 34.63305664 C22.98944866 29.39717755 18.12833583 24.51106652 13.26806641 19.61547852 C12.16719938 18.5030645 11.07082023 17.38619104 9.97900391 16.26489258 C-0.34141825 5.66729779 -10.87053938 -3.26482659 -26.38452148 -3.80444336 C-36.94513759 -3.44595003 -45.78258834 -1.0512757 -54.07202148 5.57055664 C-55.32112305 6.49674805 -55.32112305 6.49674805 -56.59545898 7.44165039 C-63.50598629 13.3820879 -67.086338 21.85246059 -69.07202148 30.57055664 C-69.40202148 30.57055664 -69.73202148 30.57055664 -70.07202148 30.57055664 C-69.55877037 18.50915548 -65.70856509 9.16384544 -57.07202148 0.57055664 C-39.50954518 -13.02949779 -17.48641239 -14.32686357 0 0 Z " fill="#A8A8A8" transform="translate(112.072021484375,89.429443359375)"/>
<path d="M0 0 C8.67663765 5.96596198 13.1846885 13.01803271 15.8125 23.125 C15.874375 24.07375 15.93625 25.0225 16 26 C16.05027344 26.65097656 16.10054687 27.30195312 16.15234375 27.97265625 C16.59712901 38.06038592 13.62767914 47.3423437 7 55 C-0.19609581 61.68417843 -8.17372146 64.98526795 -18 65 C-25.28775119 64.37663092 -31.8176686 61.89674222 -38 58 C-38.33 57.34 -38.66 56.68 -39 56 C-36.23723823 56.52268466 -33.6739124 57.10869587 -31 58 C-21.09969088 58.84701102 -13.61202472 57.49192649 -5.1875 52.25 C0.72881589 46.16464651 4.00580227 39.24154782 4.375 30.75 C4.19929251 22.6674556 1.38841926 15.45301846 -4.1796875 9.53515625 C-10.4809238 4.22102349 -17.79305467 1.72600024 -26 2 C-29.07652982 2.44916369 -32.01208133 3.15129158 -35 4 C-36.33251569 4.33658701 -37.6656174 4.67089218 -39 5 C-29.95535286 -6.62883204 -12.04293359 -6.4298491 0 0 Z " fill="#A5A5A5" transform="translate(161,14)"/>
<path d="M0 0 C1.02963867 -0.01836914 1.02963867 -0.01836914 2.08007812 -0.03710938 C6.81322725 -0.0505431 10.69220432 0.70082051 15.1875 2.1875 C15.1875 2.5175 15.1875 2.8475 15.1875 3.1875 C14.24390625 3.20167969 13.3003125 3.21585938 12.328125 3.23046875 C0.56546905 3.66743488 -9.35613852 5.92608563 -18.1328125 14.375 C-26.20363722 23.08398296 -28.49665735 31.50917254 -28.22265625 43.3984375 C-27.19618064 52.8811169 -22.89107387 60.84627757 -15.8125 67.1875 C-6.44779017 74.64024824 3.53467444 75.68064466 15.1875 75.1875 C14.1875 77.1875 14.1875 77.1875 10.875 78.3125 C-0.11894723 80.73821078 -11.22643392 79.39629552 -21.12890625 73.90234375 C-30.89105716 67.04400289 -37.46348947 57.93255264 -39.8125 46.1875 C-40.7025985 33.55494824 -38.40314899 23.43487614 -30.8125 13.1875 C-22.74640216 4.09545111 -11.9137659 0.01100071 0 0 Z " fill="#FEFEFE" transform="translate(136.8125,4.8125)"/>
<path d="M0 0 C3.93405612 3.33539541 7.80743127 6.71925128 11.625 10.1875 C13.41360331 11.79508152 15.20548955 13.39901519 17 15 C17.49274414 15.44037598 17.98548828 15.88075195 18.49316406 16.33447266 C42.77335836 37.89215623 69.53027003 48.27810026 101 55 C101 55.33 101 55.66 101 56 C93.08 56.495 93.08 56.495 85 57 C96.385 58.485 96.385 58.485 108 60 C108 60.33 108 60.66 108 61 C84.4951874 62.08986766 65.46737978 58.72763771 45 47 C43.52853516 46.16855469 43.52853516 46.16855469 42.02734375 45.3203125 C24.35797718 34.69326901 10.80205777 19.39418809 0 2 C0 1.34 0 0.68 0 0 Z " fill="#A7A7A7" transform="translate(27,145)"/>
<path d="M0 0 C7.52407159 5.92412533 13.27212785 15.05623524 14.9140625 24.54296875 C15.04313825 27.23443723 15.00872768 29.84501111 14.9140625 32.54296875 C14.5840625 32.54296875 14.2540625 32.54296875 13.9140625 32.54296875 C13.70652344 31.72054687 13.49898438 30.898125 13.28515625 30.05078125 C9.64187543 16.84960473 3.80091987 8.55233845 -8.0859375 1.54296875 C-17.73704869 -3.54109875 -28.80840753 -4.0724403 -39.3359375 -1.39453125 C-49.31855089 2.21304686 -56.36941341 8.38545979 -63.20263672 16.27490234 C-64.46335496 17.72755209 -65.77091285 19.13929075 -67.0859375 20.54296875 C-67.7459375 20.54296875 -68.4059375 20.54296875 -69.0859375 20.54296875 C-69.4296875 18.4453125 -69.4296875 18.4453125 -69.0859375 15.54296875 C-67.31844642 13.18925979 -65.62511789 11.19414086 -63.5859375 9.10546875 C-63.03711914 8.52998291 -62.48830078 7.95449707 -61.92285156 7.36157227 C-44.28197581 -10.83025753 -21.48018336 -15.0039483 0 0 Z " fill="#A7A7A7" transform="translate(216.0859375,88.45703125)"/>
<path d="M0 0 C0.99642211 1.97961738 1.98176978 3.96147142 2.9296875 5.96484375 C6.66973913 13.76949694 11.1992505 19.55296114 19.32421875 22.98046875 C28.70605136 26.11756505 37.90089882 26.08142963 47 22 C51.47116672 19.26588934 55.20667066 15.85724426 58.83203125 12.09765625 C59.31679932 11.59685547 59.80156738 11.09605469 60.30102539 10.58007812 C61.69204916 9.12319459 63.05759601 7.64211428 64.421875 6.16015625 C67 4 67 4 69.703125 3.55859375 C72 4 72 4 74 6 C74.125 8.625 74.125 8.625 74 11 C72.99582031 10.85175781 71.99164063 10.70351562 70.95703125 10.55078125 C65.30514375 11.19240717 63.34087189 14.07393964 59.6875 18.1875 C52.70385681 25.62552573 45.85509598 31.40887845 35.30078125 32.203125 C25.06447351 32.36369453 18.0483121 30.61807539 10.078125 24.02734375 C4.1568124 18.25072488 0.14467358 11.48488102 -0.125 3.125 C-0.08375 2.09375 -0.0425 1.0625 0 0 Z " fill="#A9A9A9" transform="translate(52,128)"/>
<path d="M0 0 C0.33 0 0.66 0 1 0 C1.125 7.75 1.125 7.75 0 10 C-0.66 10 -1.32 10 -2 10 C-1.34 6.7 -0.68 3.4 0 0 Z " fill="#B1B1B1" transform="translate(221,125)"/>
</svg>
